<?xml version="1.0" encoding="iso-8859-1"?>
<!-- Generator: Adobe Illustrator 18.1.1, SVG Export Plug-In . SVG Version: 6.00 Build 0)  -->
<svg version="1.1" id="Capa_1" xmlns="http://www.w3.org/2000/svg" xmlns:xlink="http://www.w3.org/1999/xlink" x="0px" y="0px"
	 viewBox="0 0 591.6 591.6" style="enable-background:new 0 0 591.6 591.6;" xml:space="preserve">
<g>
	<g>
		<path d="M448.8,357V234.6c0-5.712-4.488-10.2-10.2-10.2s-10.2,4.488-10.2,10.2V357c0,73.032-59.568,132.6-132.6,132.6
			S163.2,430.032,163.2,357V234.6c0-5.712-4.488-10.2-10.2-10.2s-10.2,4.488-10.2,10.2V357c0,80.988,63.24,147.288,142.8,152.592
			V571.2h-91.8c-5.712,0-10.2,4.488-10.2,10.2s4.488,10.2,10.2,10.2h204c5.712,0,10.2-4.488,10.2-10.2s-4.488-10.2-10.2-10.2H306
			v-61.608C385.56,504.288,448.8,437.784,448.8,357z"/>
		<path d="M295.8,448.8c50.592,0,91.8-41.208,91.8-91.8V91.8c0-50.592-41.208-91.8-91.8-91.8S204,41.208,204,91.8V357
			C204,407.592,245.208,448.8,295.8,448.8z M224.4,91.8c0-39.372,32.028-71.4,71.4-71.4s71.4,32.028,71.4,71.4V357
			c0,39.372-32.028,71.4-71.4,71.4s-71.4-32.028-71.4-71.4V91.8z"/>
		<path d="M249.492,232.764c2.856,0,5.1-2.244,5.1-5.1v-122.4c0-27.132,22.032-49.368,49.368-49.368c2.856,0,5.1-2.244,5.1-5.1
			s-2.244-5.1-5.1-5.1c-32.844,0-59.568,26.724-59.568,59.568v122.4C244.392,230.52,246.636,232.764,249.492,232.764z"/>
	</g>
</g>
<g>
</g>
<g>
</g>
<g>
</g>
<g>
</g>
<g>
</g>
<g>
</g>
<g>
</g>
<g>
</g>
<g>
</g>
<g>
</g>
<g>
</g>
<g>
</g>
<g>
</g>
<g>
</g>
<g>
</g>
</svg>
