<?xml version="1.0" encoding="utf-8"?>
<!-- Generator: Adobe Illustrator 21.1.0, SVG Export Plug-In . SVG Version: 6.00 Build 0)  -->
<svg version="1.1" xmlns="http://www.w3.org/2000/svg" xmlns:xlink="http://www.w3.org/1999/xlink" x="0px" y="0px"
	 viewBox="0 0 591.6 591.6" enable-background="new 0 0 591.6 591.6" xml:space="preserve">
<g id="Capa_1" display="none">
	<g display="inline">
		<g>
			<path d="M448.8,357V234.6c0-5.7-4.5-10.2-10.2-10.2s-10.2,4.5-10.2,10.2V357c0,73-59.6,132.6-132.6,132.6S163.2,430,163.2,357
				V234.6c0-5.7-4.5-10.2-10.2-10.2s-10.2,4.5-10.2,10.2V357c0,81,63.2,147.3,142.8,152.6v61.6h-91.8c-5.7,0-10.2,4.5-10.2,10.2
				s4.5,10.2,10.2,10.2h204c5.7,0,10.2-4.5,10.2-10.2s-4.5-10.2-10.2-10.2H306v-61.6C385.6,504.3,448.8,437.8,448.8,357z"/>
			<path d="M295.8,448.8c50.6,0,91.8-41.2,91.8-91.8V91.8c0-50.6-41.2-91.8-91.8-91.8S204,41.2,204,91.8V357
				C204,407.6,245.2,448.8,295.8,448.8z M224.4,91.8c0-39.4,32-71.4,71.4-71.4s71.4,32,71.4,71.4V357c0,39.4-32,71.4-71.4,71.4
				s-71.4-32-71.4-71.4V91.8z"/>
			<path d="M249.5,232.8c2.9,0,5.1-2.2,5.1-5.1V105.3c0-27.1,22-49.4,49.4-49.4c2.9,0,5.1-2.2,5.1-5.1s-2.2-5.1-5.1-5.1
				c-32.8,0-59.6,26.7-59.6,59.6v122.4C244.4,230.5,246.6,232.8,249.5,232.8z"/>
		</g>
	</g>
</g>
<g id="Copy">
	<g>
		<path fill="#FFFFFF" d="M318,57.7c-2.3,0.1-4.5,0.3-6.6,0.8c-1.1,0.2-2.2,0.5-3.2,0.7c-1.1,0.3-2.1,0.6-3.1,1
			c-4.1,1.5-8,3.4-11.5,5.9c-3.5,2.4-6.6,5.3-9.5,8.4c-2.7,3.3-5.3,6.6-7.3,10.4c-4.2,7.3-7.2,15.4-9.5,23.7
			c-1.2,4.1-2,8.4-2.9,12.6l-1,6.5c-0.2,1.1-0.4,2.1-0.5,3.2l-0.3,3.3c-1.9,17.4-2.2,35.1-1.6,52.8c0.5,17.8,1.8,35.6,2.7,53.6
			c-5-17.3-8.5-35.1-10.5-53c-2-18-2.5-36.3-0.4-54.5l0.4-3.4c0.1-1.1,0.4-2.3,0.5-3.4l1.1-6.8c1.1-4.5,2-9,3.5-13.5
			c2.8-8.9,6.6-17.5,12-25.3c0.7-1,1.3-2,2.1-2.9l2.3-2.7l1.1-1.4l1.3-1.3l2.5-2.5c3.6-3.1,7.4-5.9,11.6-8.1
			c4.2-2.1,8.7-3.6,13.3-4.3C309,56.9,313.6,56.8,318,57.7z"/>
	</g>
	<g>
		<path fill="#FFFFFF" d="M190.3,587.8c18.7-4.3,37.4-6.4,56.1-8c18.7-1.5,37.4-2.2,56.1-2.2c18.7,0,37.4,0.7,56.1,2.2
			c18.7,1.6,37.4,3.8,56.1,8v1.2l-28.1,0.3l-28,0.1l-56.1,0.2l-56.1-0.2l-28-0.1l-28.1-0.3V587.8z"/>
	</g>
	<g>
		<path fill="#FFFFFF" d="M154.6,229.6c-0.4,15.2-0.8,30.2-0.5,45.2c0,7.5,0.2,15,0.5,22.4l0.3,5.6c0.1,1.9,0.2,3.7,0.3,5.6
			c0.1,1.9,0.2,3.7,0.3,5.6l0.4,5.5c0.3,3.7,0.6,7.4,0.9,11.1l0.5,5.5l0.6,5.5c0.9,7.3,1.9,14.6,3.1,21.8c1.3,7.2,2.6,14.3,4.4,21.4
			c1.7,7,3.6,14,5.9,20.8c0.6,1.7,1.1,3.4,1.7,5.1l1.9,5l2,4.9c0.7,1.6,1.5,3.2,2.1,4.9c2.9,6.5,6.3,12.7,9.9,18.7
			c3.7,6,7.8,11.6,12.4,16.9c1.1,1.4,2.3,2.6,3.5,3.9l1.8,1.9c0.6,0.6,1.3,1.2,1.9,1.8c1.2,1.2,2.5,2.5,3.8,3.6l2,1.7
			c0.7,0.6,1.3,1.2,2,1.7c5.4,4.5,11.4,8.3,17.5,11.8c3.1,1.8,6.3,3.3,9.5,4.9l5,2.1c1.7,0.8,3.4,1.2,5.1,1.9l2.6,1
			c0.9,0.3,1.7,0.6,2.6,0.9c1.7,0.6,3.5,1.1,5.2,1.7c3.6,0.9,7.1,2,10.7,2.8c1.8,0.4,3.6,0.9,5.5,1.2l5.5,1c1.8,0.4,3.7,0.7,5.6,1
			c1.9,0.3,3.7,0.6,5.6,0.9v1.2c-7.6-0.1-15.2-0.3-22.7-1.2c-3.8-0.3-7.5-1.1-11.3-1.6c-1.9-0.4-3.7-0.8-5.6-1.2
			c-0.9-0.2-1.9-0.4-2.8-0.6l-2.7-0.7l-2.7-0.8c-0.9-0.2-1.8-0.5-2.7-0.8l-5.4-1.8c-3.5-1.4-7.1-2.7-10.5-4.4
			c-6.9-3.2-13.5-7-19.6-11.6c-12.3-9-22.9-20.3-31.2-33c-8.3-12.7-14.8-26.6-19.6-41c-4.7-14.4-8-29.3-10.2-44.3
			c-2.2-15-3.3-30.1-3.6-45.2c-0.6-30.3,1.7-60.5,7.2-90.3L154.6,229.6z"/>
	</g>
	<path fill="none" stroke="#FFFFFF" stroke-width="12" stroke-miterlimit="10" d="M397.6,240.6c0-65,5.5-140.4-11.4-183
		c-15.3-38.6-51.7-47.6-79-47.6c-26.5,0-63.3,7.8-79.2,43.1c-18.6,41.1-14,114.6-14,181.3c0,63.9-4.8,137.6,12.3,178.5
		c16.1,38.4,53.1,45.9,80.9,45.9c27.6,0,64.5-12.5,79.8-49.1C403.5,370.4,397.6,304.8,397.6,240.6z"/>
	<g>
		<path fill="#FFFFFF" d="M451.8,229.4c1.3,3.6,2.3,7.3,3.4,11c1,3.7,1.9,7.4,2.8,11.1c1.7,7.4,3.1,15,4.4,22.5
			c1.2,7.6,2.1,15.2,2.8,22.8c0.4,3.8,0.7,7.7,0.9,11.5c0.2,3.8,0.4,7.7,0.5,11.5c0.4,15.4-0.2,30.9-2.1,46.4
			c-1,7.7-2.3,15.5-3.9,23.1c-1.7,7.7-3.8,15.3-6.2,22.8c-2.5,7.5-5.4,14.9-8.9,22.2c-3.5,7.2-7.5,14.2-12.1,20.9
			c-4.6,6.7-9.7,13-15.5,18.7c-1.4,1.5-2.9,2.8-4.4,4.2l-2.3,2.1c-0.8,0.7-1.6,1.3-2.4,1.9c-1.6,1.3-3.2,2.6-4.8,3.7l-2.5,1.8
			c-0.8,0.6-1.6,1.2-2.5,1.7c-13.5,9-28.8,14.9-44.2,17.8l-2.9,0.5c-1,0.2-1.9,0.3-2.9,0.4c-1.9,0.2-3.9,0.5-5.8,0.7
			c-3.9,0.3-7.7,0.7-11.6,0.6c-1.9,0-3.9,0.1-5.8,0l-5.8-0.2c-1.9-0.1-3.8-0.3-5.7-0.5c-1.9-0.2-3.8-0.4-5.7-0.7v-1.2
			c7.5-0.2,15.1-0.5,22.5-1.5c3.7-0.4,7.4-1.2,11.1-1.8c1.8-0.4,3.7-0.8,5.5-1.2c0.9-0.2,1.8-0.4,2.7-0.6l2.7-0.8l2.7-0.8
			c0.9-0.2,1.8-0.5,2.7-0.8l5.3-1.8c3.5-1.4,7-2.7,10.3-4.4c6.8-3.2,13.3-7,19.3-11.5c12-8.9,22.4-20,30.5-32.6
			c8.2-12.6,14.5-26.3,19.1-40.6c4.7-14.2,8.1-29,10.3-43.8c2.2-14.9,3.4-29.9,3.8-45c0.4-15.1-0.1-30.1-1.1-45.2
			c-1-15-2.6-30.1-5.2-44.9L451.8,229.4z"/>
	</g>
	<line fill="none" stroke="#FFFFFF" stroke-width="12" stroke-miterlimit="10" x1="302.5" y1="506.8" x2="302.5" y2="585.9"/>
</g>
</svg>
